<mxfile host="Electron" modified="2024-01-24T17:38:38.488Z" agent="Mozilla/5.0 (X11; Linux x86_64) AppleWebKit/537.36 (KHTML, like Gecko) draw.io/22.1.21 Chrome/120.0.6099.109 Electron/28.1.0 Safari/537.36" etag="LwN6xAT-ZBCslCTBfBnD" version="22.1.21" type="device">
  <diagram id="G4t1x3i_cumIOjZ8GDXV" name="Page-1">
    <mxGraphModel dx="2020" dy="1203" grid="1" gridSize="10" guides="1" tooltips="1" connect="1" arrows="1" fold="1" page="1" pageScale="1" pageWidth="850" pageHeight="1100" math="0" shadow="0">
      <root>
        <mxCell id="0" />
        <mxCell id="1" parent="0" />
        <mxCell id="4NMri5ObQx2eB0Vx6lmc-10" value="" style="edgeStyle=orthogonalEdgeStyle;rounded=0;orthogonalLoop=1;jettySize=auto;html=1;entryX=0;entryY=0.25;entryDx=0;entryDy=0;startArrow=classic;startFill=1;" parent="1" source="4NMri5ObQx2eB0Vx6lmc-1" target="4NMri5ObQx2eB0Vx6lmc-4" edge="1">
          <mxGeometry relative="1" as="geometry">
            <Array as="points">
              <mxPoint x="120" y="430" />
              <mxPoint x="120" y="485" />
            </Array>
          </mxGeometry>
        </mxCell>
        <mxCell id="ENQS6q1PjWJlhAXhEhIM-2" value="Register&lt;br&gt;Create session&lt;br&gt;Manage own&amp;nbsp;profile&lt;br&gt;Manage connections&lt;br&gt;Search users by name&lt;br&gt;Get public profiles&lt;br style=&quot;border-color: var(--border-color);&quot;&gt;Get user chats&lt;br&gt;Get chat history&lt;br&gt;Upload/download file&lt;br&gt;Manage user files" style="edgeStyle=orthogonalEdgeStyle;rounded=0;orthogonalLoop=1;jettySize=auto;html=1;entryX=0;entryY=0.5;entryDx=0;entryDy=0;" parent="1" source="4NMri5ObQx2eB0Vx6lmc-1" target="8u_ZxKzGpFRI09v13LqC-1" edge="1">
          <mxGeometry relative="1" as="geometry">
            <Array as="points">
              <mxPoint x="120" y="420" />
              <mxPoint x="120" y="170" />
            </Array>
            <mxPoint as="offset" />
          </mxGeometry>
        </mxCell>
        <mxCell id="4NMri5ObQx2eB0Vx6lmc-1" value="Client" style="shape=umlActor;verticalLabelPosition=bottom;verticalAlign=top;html=1;outlineConnect=0;" parent="1" vertex="1">
          <mxGeometry x="40" y="380" width="30" height="60" as="geometry" />
        </mxCell>
        <mxCell id="4NMri5ObQx2eB0Vx6lmc-13" value="Send message&lt;br&gt;Send file&lt;br&gt;React to message&lt;br&gt;Receive notifications" style="edgeStyle=orthogonalEdgeStyle;rounded=0;orthogonalLoop=1;jettySize=auto;html=1;entryX=0;entryY=0.75;entryDx=0;entryDy=0;startArrow=classic;startFill=1;" parent="1" source="4NMri5ObQx2eB0Vx6lmc-3" target="4NMri5ObQx2eB0Vx6lmc-4" edge="1">
          <mxGeometry x="0.0286" y="-10" relative="1" as="geometry">
            <mxPoint as="offset" />
            <Array as="points">
              <mxPoint x="120" y="600" />
              <mxPoint x="120" y="515" />
            </Array>
          </mxGeometry>
        </mxCell>
        <mxCell id="4NMri5ObQx2eB0Vx6lmc-3" value="Client" style="shape=umlActor;verticalLabelPosition=bottom;verticalAlign=top;html=1;outlineConnect=0;" parent="1" vertex="1">
          <mxGeometry x="40" y="550" width="30" height="60" as="geometry" />
        </mxCell>
        <mxCell id="4NMri5ObQx2eB0Vx6lmc-16" value="PUB messages and reactions&lt;br&gt;&lt;div&gt;SUB assigned partitions&lt;/div&gt;" style="rounded=0;orthogonalLoop=1;jettySize=auto;html=1;entryX=0;entryY=0.5;entryDx=0;entryDy=0;entryPerimeter=0;startArrow=classic;startFill=1;exitX=1;exitY=0.5;exitDx=0;exitDy=0;" parent="1" source="4NMri5ObQx2eB0Vx6lmc-4" target="4NMri5ObQx2eB0Vx6lmc-9" edge="1">
          <mxGeometry x="0.0527" y="-1" relative="1" as="geometry">
            <mxPoint as="offset" />
          </mxGeometry>
        </mxCell>
        <mxCell id="4NMri5ObQx2eB0Vx6lmc-4" value="&lt;font style=&quot;font-size: 12px&quot;&gt;Messaging&lt;/font&gt;" style="rounded=1;whiteSpace=wrap;html=1;gradientColor=#ffa500;fillColor=#ffcd28;strokeColor=#d79b00;" parent="1" vertex="1">
          <mxGeometry x="160" y="470" width="120" height="60" as="geometry" />
        </mxCell>
        <mxCell id="Gfm62hS2zhEuvZ2v64Gk-10" value="Process messages into chat state&lt;br&gt;Process messages and reactions into history" style="edgeStyle=orthogonalEdgeStyle;rounded=0;orthogonalLoop=1;jettySize=auto;html=1;entryX=0.5;entryY=1;entryDx=0;entryDy=0;exitX=1;exitY=0.5;exitDx=0;exitDy=0;exitPerimeter=0;" parent="1" source="4NMri5ObQx2eB0Vx6lmc-9" target="ENQS6q1PjWJlhAXhEhIM-1" edge="1">
          <mxGeometry x="0.4627" relative="1" as="geometry">
            <mxPoint as="offset" />
            <Array as="points">
              <mxPoint x="780" y="500" />
              <mxPoint x="780" y="230" />
              <mxPoint x="440" y="230" />
            </Array>
            <mxPoint x="740" y="460" as="sourcePoint" />
          </mxGeometry>
        </mxCell>
        <mxCell id="4NMri5ObQx2eB0Vx6lmc-9" value="PUB/SUB&lt;br&gt;backplane" style="strokeWidth=2;html=1;shape=mxgraph.flowchart.direct_data;whiteSpace=wrap;gradientColor=#97d077;fillColor=#d5e8d4;strokeColor=#82b366;" parent="1" vertex="1">
          <mxGeometry x="640" y="460" width="120" height="80" as="geometry" />
        </mxCell>
        <mxCell id="4NMri5ObQx2eB0Vx6lmc-20" value="Chats DB" style="shape=cylinder3;whiteSpace=wrap;html=1;boundedLbl=1;backgroundOutline=1;size=15;gradientColor=#7ea6e0;fillColor=#dae8fc;strokeColor=#6c8ebf;" parent="1" vertex="1">
          <mxGeometry x="640" y="130" width="120" height="80" as="geometry" />
        </mxCell>
        <mxCell id="4NMri5ObQx2eB0Vx6lmc-25" value="&lt;font style=&quot;font-size: 11px&quot;&gt;Get user chats&lt;br style=&quot;border-color: var(--border-color);&quot;&gt;Update user chats&lt;br&gt;Get chat history&lt;br&gt;Persist messages&lt;br&gt;Persist reactions&lt;br&gt;&lt;/font&gt;" style="rounded=0;orthogonalLoop=1;jettySize=auto;html=1;entryX=0;entryY=0.5;entryDx=0;entryDy=0;entryPerimeter=0;startArrow=none;startFill=0;exitX=1;exitY=0.5;exitDx=0;exitDy=0;" parent="1" source="ENQS6q1PjWJlhAXhEhIM-1" target="4NMri5ObQx2eB0Vx6lmc-20" edge="1">
          <mxGeometry relative="1" as="geometry">
            <mxPoint x="370" y="345" as="sourcePoint" />
            <mxPoint x="600" y="490" as="targetPoint" />
            <mxPoint as="offset" />
            <Array as="points" />
          </mxGeometry>
        </mxCell>
        <mxCell id="QVO6qr5AluIkjkF2SAql-7" value="Get config&lt;br&gt;Update config" style="edgeStyle=orthogonalEdgeStyle;rounded=0;orthogonalLoop=1;jettySize=auto;html=1;entryX=0;entryY=0.5;entryDx=0;entryDy=0;entryPerimeter=0;exitX=1;exitY=0.5;exitDx=0;exitDy=0;" parent="1" source="Gfm62hS2zhEuvZ2v64Gk-13" target="QVO6qr5AluIkjkF2SAql-2" edge="1">
          <mxGeometry relative="1" as="geometry" />
        </mxCell>
        <mxCell id="Gfm62hS2zhEuvZ2v64Gk-13" value="Config" style="rounded=1;whiteSpace=wrap;html=1;gradientColor=#ffa500;fillColor=#ffcd28;strokeColor=#d79b00;" parent="1" vertex="1">
          <mxGeometry x="380" y="600" width="120" height="60" as="geometry" />
        </mxCell>
        <mxCell id="QVO6qr5AluIkjkF2SAql-2" value="Config DB" style="shape=cylinder3;whiteSpace=wrap;html=1;boundedLbl=1;backgroundOutline=1;size=15;gradientColor=#7ea6e0;fillColor=#dae8fc;strokeColor=#6c8ebf;" parent="1" vertex="1">
          <mxGeometry x="640" y="590" width="120" height="80" as="geometry" />
        </mxCell>
        <mxCell id="ENQS6q1PjWJlhAXhEhIM-1" value="&lt;font style=&quot;font-size: 12px&quot;&gt;Chats&lt;/font&gt;" style="rounded=1;whiteSpace=wrap;html=1;gradientColor=#ffa500;fillColor=#ffcd28;strokeColor=#d79b00;" parent="1" vertex="1">
          <mxGeometry x="380" y="140" width="120" height="60" as="geometry" />
        </mxCell>
        <mxCell id="ugsCivUr18LWlaLhRu20-2" value="&lt;font style=&quot;font-size: 12px&quot;&gt;ID Gen&lt;/font&gt;" style="rounded=1;whiteSpace=wrap;html=1;gradientColor=#ffa500;fillColor=#ffcd28;strokeColor=#d79b00;" parent="1" vertex="1">
          <mxGeometry x="380" y="530" width="120" height="60" as="geometry" />
        </mxCell>
        <mxCell id="ugsCivUr18LWlaLhRu20-3" value="Get&lt;br&gt;message IDs" style="endArrow=classic;html=1;entryX=0;entryY=0.5;entryDx=0;entryDy=0;rounded=0;edgeStyle=orthogonalEdgeStyle;exitX=1;exitY=0.75;exitDx=0;exitDy=0;" parent="1" source="4NMri5ObQx2eB0Vx6lmc-4" target="ugsCivUr18LWlaLhRu20-2" edge="1">
          <mxGeometry x="0.0345" width="50" height="50" relative="1" as="geometry">
            <mxPoint x="360" y="600" as="sourcePoint" />
            <mxPoint x="290" y="505" as="targetPoint" />
            <mxPoint as="offset" />
            <Array as="points">
              <mxPoint x="330" y="515" />
              <mxPoint x="330" y="560" />
            </Array>
          </mxGeometry>
        </mxCell>
        <mxCell id="8u_ZxKzGpFRI09v13LqC-1" value="&lt;font style=&quot;font-size: 12px&quot;&gt;Backend&amp;nbsp; &amp;nbsp; &amp;nbsp; &amp;nbsp;&lt;br&gt;For Frontend&lt;/font&gt;" style="rounded=1;whiteSpace=wrap;html=1;gradientColor=#ffa500;fillColor=#ffcd28;strokeColor=#d79b00;" parent="1" vertex="1">
          <mxGeometry x="160" y="140" width="120" height="60" as="geometry" />
        </mxCell>
        <mxCell id="8u_ZxKzGpFRI09v13LqC-8" value="Get user chats&lt;br&gt;Get chat history" style="endArrow=classic;html=1;exitX=1;exitY=0.5;exitDx=0;exitDy=0;entryX=0;entryY=0.5;entryDx=0;entryDy=0;rounded=0;edgeStyle=orthogonalEdgeStyle;" parent="1" source="8u_ZxKzGpFRI09v13LqC-1" target="ENQS6q1PjWJlhAXhEhIM-1" edge="1">
          <mxGeometry width="50" height="50" relative="1" as="geometry">
            <mxPoint x="290" y="515" as="sourcePoint" />
            <mxPoint x="370" y="580" as="targetPoint" />
            <mxPoint as="offset" />
          </mxGeometry>
        </mxCell>
        <mxCell id="N8o6pxAm7GHtogUow3PV-1" value="PUB user connection changes" style="edgeStyle=orthogonalEdgeStyle;rounded=0;orthogonalLoop=1;jettySize=auto;html=1;entryX=0;entryY=0.25;entryDx=0;entryDy=0;entryPerimeter=0;" parent="1" source="u7EXwUm9e5_MvhXn00Du-1" target="4NMri5ObQx2eB0Vx6lmc-9" edge="1">
          <mxGeometry x="-0.3714" relative="1" as="geometry">
            <mxPoint x="500" y="480" as="targetPoint" />
            <Array as="points">
              <mxPoint x="440" y="480" />
            </Array>
            <mxPoint as="offset" />
          </mxGeometry>
        </mxCell>
        <mxCell id="u7EXwUm9e5_MvhXn00Du-1" value="&lt;font style=&quot;font-size: 12px&quot;&gt;User&lt;/font&gt;" style="rounded=1;whiteSpace=wrap;html=1;gradientColor=#ffa500;fillColor=#ffcd28;strokeColor=#d79b00;" parent="1" vertex="1">
          <mxGeometry x="380" y="270" width="120" height="60" as="geometry" />
        </mxCell>
        <mxCell id="u7EXwUm9e5_MvhXn00Du-4" value="User DB" style="shape=cylinder3;whiteSpace=wrap;html=1;boundedLbl=1;backgroundOutline=1;size=15;gradientColor=#7ea6e0;fillColor=#dae8fc;strokeColor=#6c8ebf;" parent="1" vertex="1">
          <mxGeometry x="640" y="260" width="120" height="80" as="geometry" />
        </mxCell>
        <mxCell id="u7EXwUm9e5_MvhXn00Du-5" value="&lt;font style=&quot;font-size: 11px&quot;&gt;Create profile&lt;br&gt;Manage own profile&lt;br style=&quot;border-color: var(--border-color);&quot;&gt;Manage connections&lt;br&gt;Search users by name&lt;br&gt;Get public profiles&lt;br&gt;Manage user files&lt;br&gt;&lt;/font&gt;" style="rounded=0;orthogonalLoop=1;jettySize=auto;html=1;entryX=0;entryY=0.5;entryDx=0;entryDy=0;entryPerimeter=0;startArrow=none;startFill=0;exitX=1;exitY=0.5;exitDx=0;exitDy=0;edgeStyle=orthogonalEdgeStyle;" parent="1" source="u7EXwUm9e5_MvhXn00Du-1" target="u7EXwUm9e5_MvhXn00Du-4" edge="1">
          <mxGeometry relative="1" as="geometry">
            <mxPoint x="500" y="130" as="sourcePoint" />
            <mxPoint x="570" y="180" as="targetPoint" />
            <mxPoint as="offset" />
          </mxGeometry>
        </mxCell>
        <mxCell id="u7EXwUm9e5_MvhXn00Du-6" value="Create own profile&lt;br style=&quot;border-color: var(--border-color);&quot;&gt;Authenticate&lt;br style=&quot;border-color: var(--border-color);&quot;&gt;Manage own profile&lt;br style=&quot;border-color: var(--border-color);&quot;&gt;Manage connections&lt;br&gt;Search users by name&lt;br&gt;Get public profiles&lt;br&gt;Manage user files" style="endArrow=classic;html=1;entryX=0;entryY=0.5;entryDx=0;entryDy=0;exitX=1;exitY=0.75;exitDx=0;exitDy=0;rounded=0;edgeStyle=orthogonalEdgeStyle;" parent="1" source="8u_ZxKzGpFRI09v13LqC-1" target="u7EXwUm9e5_MvhXn00Du-1" edge="1">
          <mxGeometry x="0.0698" y="-20" width="50" height="50" relative="1" as="geometry">
            <mxPoint x="290" y="110" as="sourcePoint" />
            <mxPoint x="390" y="360" as="targetPoint" />
            <mxPoint as="offset" />
            <Array as="points">
              <mxPoint x="330" y="185" />
              <mxPoint x="330" y="300" />
            </Array>
          </mxGeometry>
        </mxCell>
        <mxCell id="eNCGF5EXhzy075C7Mp53-1" value="User cache" style="shape=cylinder3;whiteSpace=wrap;html=1;boundedLbl=1;backgroundOutline=1;size=15;gradientColor=#7ea6e0;fillColor=#dae8fc;strokeColor=#6c8ebf;" parent="1" vertex="1">
          <mxGeometry x="640" y="350" width="120" height="80" as="geometry" />
        </mxCell>
        <mxCell id="eNCGF5EXhzy075C7Mp53-2" value="Cache user searches&lt;br&gt;Cache public profiles&lt;br style=&quot;border-color: var(--border-color);&quot;&gt;Cache connections" style="rounded=0;orthogonalLoop=1;jettySize=auto;html=1;entryX=0;entryY=0.5;entryDx=0;entryDy=0;entryPerimeter=0;exitX=1;exitY=0.75;exitDx=0;exitDy=0;edgeStyle=orthogonalEdgeStyle;" parent="1" source="u7EXwUm9e5_MvhXn00Du-1" target="eNCGF5EXhzy075C7Mp53-1" edge="1">
          <mxGeometry x="0.3488" relative="1" as="geometry">
            <mxPoint x="490" y="220" as="sourcePoint" />
            <mxPoint x="590" y="240" as="targetPoint" />
            <mxPoint as="offset" />
            <Array as="points">
              <mxPoint x="520" y="315" />
              <mxPoint x="520" y="390" />
            </Array>
          </mxGeometry>
        </mxCell>
        <mxCell id="2VSCiA0DFceLc1Hlk_Zp-1" value="File storage" style="shape=cylinder3;whiteSpace=wrap;html=1;boundedLbl=1;backgroundOutline=1;size=15;gradientColor=#7ea6e0;fillColor=#dae8fc;strokeColor=#6c8ebf;" parent="1" vertex="1">
          <mxGeometry x="640" y="40" width="120" height="80" as="geometry" />
        </mxCell>
        <mxCell id="2VSCiA0DFceLc1Hlk_Zp-2" value="Upload/download file&lt;br&gt;Manage buckets" style="edgeStyle=orthogonalEdgeStyle;rounded=0;orthogonalLoop=1;jettySize=auto;html=1;entryX=0;entryY=0.5;entryDx=0;entryDy=0;entryPerimeter=0;exitX=1;exitY=0.25;exitDx=0;exitDy=0;" parent="1" source="8u_ZxKzGpFRI09v13LqC-1" target="2VSCiA0DFceLc1Hlk_Zp-1" edge="1">
          <mxGeometry x="0.5862" relative="1" as="geometry">
            <mxPoint x="340" y="140" as="sourcePoint" />
            <Array as="points">
              <mxPoint x="330" y="155" />
              <mxPoint x="330" y="80" />
            </Array>
            <mxPoint as="offset" />
          </mxGeometry>
        </mxCell>
      </root>
    </mxGraphModel>
  </diagram>
</mxfile>
